<!DOCTYPE svg PUBLIC "-//W3C//DTD SVG 20010904//EN" "http://www.w3.org/TR/2001/REC-SVG-20010904/DTD/svg10.dtd">
<svg version="1.0" xmlns="http://www.w3.org/2000/svg" width="904px" height="768px" viewBox="0 0 9040 7680" preserveAspectRatio="xMidYMid meet">
<g id="layer101" fill="#39b4ad" stroke="none">
 <path d="M4357 7275 c-15 -8 -51 -19 -80 -24 -144 -27 -347 -135 -471 -250 -143 -132 -1701 -1702 -1704 -1717 -3 -12 98 -14 695 -16 384 -2 708 0 720 4 19 6 89 120 252 410 30 54 115 201 172 298 24 41 48 84 54 95 10 20 22 20 535 23 l525 2 18 -22 c10 -13 31 -48 47 -78 37 -68 75 -134 164 -287 38 -65 81 -141 96 -169 25 -46 53 -95 87 -149 41 -68 103 -190 103 -205 0 -10 -34 -78 -77 -152 -42 -73 -87 -153 -101 -178 -13 -25 -63 -112 -111 -195 -48 -82 -111 -193 -141 -245 -29 -52 -60 -103 -68 -112 -14 -17 -53 -18 -543 -18 l-527 0 -11 28 c-7 15 -34 63 -61 107 -27 44 -55 91 -62 105 -10 22 -51 92 -173 300 -18 30 -42 73 -54 95 -12 22 -33 58 -46 80 -13 22 -28 50 -34 62 -22 48 -9 47 -826 50 -423 2 -781 1 -795 -2 -29 -7 -354 -325 -439 -430 -113 -139 -166 -248 -223 -455 -30 -106 -28 -365 3 -488 52 -209 134 -354 306 -537 66 -71 606 -614 1200 -1206 1122 -1119 1131 -1128 1283 -1196 173 -79 258 -96 470 -96 152 -1 186 2 258 22 163 44 277 101 412 203 47 36 1800 1792 1800 1804 0 6 -8 13 -17 15 -10 2 -340 2 -733 -1 l-715 -5 -52 -85 c-80 -131 -94 -155 -178 -305 -43 -77 -88 -156 -100 -175 -12 -19 -48 -81 -79 -136 -31 -56 -65 -109 -75 -118 -16 -15 -68 -16 -532 -14 l-514 3 -37 55 c-20 30 -45 71 -56 90 -43 79 -257 456 -272 480 -5 8 -21 35 -34 60 -13 25 -45 80 -70 123 -25 43 -46 87 -46 98 0 11 17 51 39 87 21 37 76 132 122 212 45 80 121 213 169 295 47 83 105 185 129 227 24 42 50 79 58 82 7 3 243 6 524 6 l510 1 19 -23 c11 -13 47 -72 80 -133 34 -60 70 -123 79 -140 27 -45 206 -355 228 -395 11 -19 35 -59 52 -87 l33 -53 771 -2 c425 -2 795 -2 822 -1 l50 2 190 193 c257 261 321 353 389 563 54 170 66 380 30 570 -20 107 -93 278 -160 375 -61 88 -127 156 -1156 1190 -980 985 -1300 1300 -1321 1300 -5 0 -23 11 -40 24 -71 53 -242 124 -342 141 -21 4 -52 13 -67 21 -39 20 -312 20 -351 -1z m-833 -2627 c13 -18 36 -55 51 -83 15 -27 31 -54 35 -60 5 -5 23 -37 41 -70 18 -33 58 -103 90 -156 31 -53 65 -111 74 -130 10 -19 27 -44 38 -56 l20 -23 657 0 c565 0 658 2 677 15 12 8 37 43 57 77 20 35 41 70 46 78 9 14 100 173 207 363 l44 77 402 0 402 0 36 -58 c20 -31 76 -127 124 -212 49 -85 105 -184 126 -220 20 -36 53 -95 73 -131 l35 -67 -28 -53 c-15 -30 -48 -89 -72 -132 -24 -43 -51 -90 -59 -105 -62 -112 -95 -169 -105 -182 -7 -8 -31 -51 -55 -95 -70 -133 -21 -120 -466 -123 -423 -4 -421 -4 -447 56 -7 15 -19 38 -28 52 -13 21 -104 179 -173 301 -58 101 -91 156 -104 172 -14 16 -59 17 -687 17 -728 0 -679 3 -710 -50 -11 -20 -20 -35 -167 -290 -135 -234 -138 -239 -158 -250 -11 -6 -172 -10 -400 -10 l-382 0 -28 31 c-16 16 -32 40 -36 52 -4 12 -19 40 -34 62 -15 22 -56 92 -91 155 -35 63 -68 122 -74 131 -5 9 -25 44 -42 77 -18 33 -46 82 -63 108 -16 27 -30 59 -30 73 0 23 72 156 289 531 40 69 80 133 88 143 15 16 47 17 409 17 l393 0 25 -32z"/>
 <path d="M4127 5748 c-61 -94 -137 -223 -137 -233 0 -3 -19 -36 -43 -73 -24 -37 -46 -74 -50 -84 -3 -9 -24 -46 -46 -83 -23 -37 -41 -73 -41 -80 0 -16 23 -60 105 -200 32 -55 69 -118 81 -140 87 -159 150 -263 171 -282 24 -23 25 -23 363 -23 356 0 383 3 396 44 4 12 15 33 25 47 10 14 31 50 47 80 16 30 70 124 120 209 115 194 142 245 142 265 0 9 -31 69 -69 133 -38 64 -81 140 -96 167 -15 28 -59 103 -96 167 -38 64 -69 121 -69 127 0 5 -10 17 -22 25 -19 14 -72 16 -375 16 l-352 0 -54 -82z"/>
 <path d="M4490 3460 l-315 -5 -30 -47 c-64 -101 -80 -127 -163 -278 -47 -85 -107 -189 -134 -231 l-49 -76 46 -77 c24 -42 56 -97 70 -124 29 -55 34 -62 97 -163 27 -41 48 -79 48 -85 1 -5 24 -47 53 -94 l53 -85 74 -6 c41 -4 204 -7 361 -8 284 -1 286 -1 306 22 11 12 66 103 122 202 56 99 106 187 111 195 64 106 120 211 120 224 0 15 -122 233 -177 317 -12 19 -23 38 -23 42 0 4 -18 36 -40 71 -22 35 -40 66 -40 69 0 12 -72 122 -88 135 -9 6 -32 11 -51 10 -20 -2 -178 -5 -351 -8z"/>
 </g>

</svg>